<svg xmlns="http://www.w3.org/2000/svg" height="250" viewBox="0 0 700 250" width="700"><path fill="#fff" d="M0 0h700v250H0z"/><text font-size="40" y="149.452" x="349.3" font-family="sans-serif" word-spacing="0" letter-spacing="0"/><text font-size="40" y="138.952" x="369.65" font-family="sans-serif" word-spacing="0" letter-spacing="0"/><path stroke-linejoin="round" d="M263 144l-10 10m-30-10h40l-10-10" stroke="#000" stroke-width="4" fill="none"/><text font-size="40" y="181.042" x="222.894" font-family="sans-serif" word-spacing="0" letter-spacing="0"><tspan y="181.042" x="222.894" font-size="17.5">conv</tspan></text><path stroke-linejoin="round" d="M71.281 203.44h107.7V95.74h-107.7z" fill-rule="evenodd" stroke="#000" stroke-width="2.154" fill="#fff"/><text font-size="40" y="59.282" x="197.325" font-family="sans-serif" word-spacing="0" letter-spacing="0" transform="translate(-103.629)"><tspan y="59.282" x="197.325" font-size="20">28x28</tspan></text><g stroke-linejoin="round" stroke="#000" stroke-width="2" fill="none"><path d="M303.542 104.57l20-20h100v100l-20 20M403.542 104.57l20-20"/><path d="M303.542 104.57v100h100v-100z"/></g><text font-size="40" y="59.282" x="431.454" font-family="sans-serif" word-spacing="0" letter-spacing="0" transform="translate(-111.629)"><tspan y="59.282" x="431.454" font-size="20">26x26x8</tspan></text><g><g stroke-linejoin="round" stroke="#000" stroke-width="4" fill="none"><path d="M552.91 124.565l20-20h50v50l-20 20M602.91 124.565l20-20" stroke-width="2"/><path d="M552.91 124.565v50h50v-50z" stroke-width="2"/></g><text font-size="40" y="59.282" x="631.454" font-family="sans-serif" word-spacing="0" letter-spacing="0" transform="translate(-87.625)"><tspan y="59.282" x="631.454" font-size="20">13x13x8</tspan></text></g><path stroke-linejoin="round" d="M505.62 144l-10 10m-30-10h40l-10-10" stroke="#000" stroke-width="4" fill="none"/><text font-size="40" y="181.042" x="448.894" font-family="sans-serif" word-spacing="0" letter-spacing="0"><tspan y="181.042" x="448.894" font-size="17.5">maxpool</tspan></text></svg>